<?xml version="1.0" encoding="UTF-8"?>
<!DOCTYPE svg PUBLIC "-//W3C//DTD SVG 1.1//EN" "http://www.w3.org/Graphics/SVG/1.1/DTD/svg11.dtd">
<!-- Creator: CorelDRAW X8 -->
<svg xmlns="http://www.w3.org/2000/svg" xml:space="preserve" width="156mm" height="106mm" version="1.1" style="shape-rendering:geometricPrecision; text-rendering:geometricPrecision; image-rendering:optimizeQuality; fill-rule:evenodd; clip-rule:evenodd"
viewBox="0 0 15600 10600"
 xmlns:xlink="http://www.w3.org/1999/xlink">
 <defs>
  <style type="text/css">
   <![CDATA[
    .str0 {stroke:#8FCE1D;stroke-width:7.62}
    .fil7 {fill:#FEFEFE}
    .fil9 {fill:#E6E7E8}
    .fil5 {fill:#4B4B4D}
    .fil1 {fill:#0074BA}
    .fil4 {fill:#4C4C4D}
    .fil6 {fill:#92D050}
    .fil3 {fill:#93C851}
    .fil2 {fill:#93C951}
    .fil0 {fill:white}
    .fil8 {fill:white;fill-rule:nonzero}
   ]]>
  </style>
     <mask id="id0">
  <linearGradient id="id1" gradientUnits="userSpaceOnUse" x1="8270.96" y1="5099.93" x2="11920.8" y2="4147.6">
   <stop offset="0" style="stop-opacity:0.980392; stop-color:white"/>
   <stop offset="1" style="stop-opacity:0; stop-color:white"/>
  </linearGradient>
      <rect style="fill:url(#id1)" x="7349" y="3260" width="3399" height="2520"/>
     </mask>
 </defs>
 <g id="Camada_x0020_1">
  <metadata id="CorelCorpID_0Corel-Layer"/>
  <g id="_927610704">
   <g>
    <path class="fil0" d="M9326 8760c224,0 452,4 675,-1 584,-12 1037,-295 1038,-984 0,-217 -34,-386 -118,-556 -35,-70 -99,-153 -145,-194 -219,-199 -465,-234 -775,-234 -225,0 -450,0 -675,0l0 1969z"/>
    <path class="fil0" d="M14347 6607c20,10 143,15 179,20 58,8 112,19 167,35 316,86 509,301 518,680l-172 0c-11,-226 -83,-377 -221,-461 -257,-156 -883,-154 -1126,2 -168,107 -214,316 -130,476 78,147 241,193 440,240 184,44 377,72 562,117 394,96 713,205 690,674l4 0 0 -1782 -458 0c-63,0 -432,-7 -453,-1z"/>
    <path class="fil1" d="M6748 7800l-1145 0 -1 155 984 3c19,264 -95,491 -302,634 -202,140 -441,206 -748,190 -567,-31 -939,-337 -978,-895 -39,-551 220,-989 777,-1096 266,-51 588,-27 809,81 192,93 351,280 403,538l177 1c-29,-185 -158,-441 -295,-548 -51,-40 -98,-79 -166,-115 -257,-134 -634,-174 -961,-113 -613,115 -990,594 -911,1325 18,169 61,300 130,431 66,126 163,225 260,301 214,168 530,255 878,250 672,-9 1197,-429 1089,-1142z"/>
    <path class="fil1" d="M9326 8760l0 -1969c225,0 450,0 675,0 310,0 556,35 775,234 46,41 110,124 145,194 84,170 118,339 118,556 -1,689 -454,972 -1038,984 -223,5 -451,1 -675,1zm-173 160c15,-6 722,-2 804,-3 251,-1 462,-41 664,-133 405,-183 590,-565 590,-1009 0,-527 -201,-867 -564,-1035 -212,-97 -437,-106 -690,-106 -268,0 -535,0 -803,0l-1 2286z"/>
    <path class="fil2" d="M15009 8092c31,15 56,89 65,133 11,55 13,124 2,180 -22,115 -84,180 -154,230 -276,201 -952,199 -1241,4 -71,-48 -138,-114 -179,-206 -53,-121 -48,-190 -53,-329 -26,-8 -136,-4 -171,-4 -42,550 349,788 851,834 324,30 780,-25 994,-256 37,-40 58,-67 87,-125 26,-53 34,-100 44,-163 23,-469 -296,-578 -690,-674 -185,-45 -378,-73 -562,-117 -199,-47 -362,-93 -440,-240 -84,-160 -38,-369 130,-476 243,-156 869,-158 1126,-2 138,84 210,235 221,461l172 0c-9,-379 -202,-594 -518,-680 -55,-16 -109,-27 -167,-35 -36,-5 -159,-10 -179,-20 -30,8 -200,4 -251,7 -368,25 -727,144 -745,550 -10,245 105,372 268,473 231,146 989,230 1240,345 53,25 137,72 150,110z"/>
    <polygon class="fil2" points="11445,8915 13202,8918 13202,8760 11617,8760 11617,7811 13005,7810 13005,7648 11617,7647 11617,6793 13183,6791 13182,6634 11445,6634 "/>
    <path class="fil3" d="M9135 6053c14,-30 6,-17 59,-50 90,-57 271,-161 366,-195 25,-9 51,-18 78,-26l-467 0c-14,90 -27,183 -36,271z"/>
    <path class="fil1" d="M7957 6887c5,5 3,3 8,9 3,4 3,5 6,10l57 125c21,48 43,97 66,146l265 576c23,48 45,97 67,145 20,46 48,97 64,143l-1076 0 543 -1154zm-1149 2030c234,1 186,25 235,-83 94,-204 209,-436 296,-634l1221 -1 325 717 186 2 -257 -571c-174,-364 -344,-780 -517,-1142 -43,-91 -226,-513 -258,-571l-158 0 -1073 2283z"/>
    <path class="fil0" d="M13449 8104c5,139 0,208 53,329 41,92 108,158 179,206 289,195 965,197 1241,-4 70,-50 132,-115 154,-230 11,-56 9,-125 -2,-180 -9,-44 -34,-118 -65,-133 15,25 4,4 -2,13l-1558 -1z"/>
    <path class="fil1" d="M2047 10131l0 29 -107 0c-29,45 -34,65 -77,94 -73,49 -312,72 -333,-123l517 0zm-513 -98c7,-91 106,-145 202,-145 53,0 104,13 138,38 25,20 60,63 62,107l-402 0zm-232 31c-8,164 -183,230 -359,214 -174,-17 -288,-112 -291,-293 -5,-346 388,-349 526,-273 92,50 90,114 120,172l111 0c-18,-118 -82,-205 -154,-250 -203,-126 -712,-91 -715,341 -2,242 157,380 384,403 159,16 345,-22 434,-146 13,-18 64,-110 54,-135 18,107 16,140 81,205 112,113 333,102 435,37 57,-36 87,-87 120,-162 14,33 11,62 33,99 58,96 166,118 281,112 219,-11 276,-166 205,-264 -81,-111 -351,-73 -378,-144 -16,-40 21,-65 47,-76 35,-15 75,-17 116,-14 99,9 113,44 124,138l113 0c27,-267 -359,-303 -486,-158 -46,52 -40,148 6,195 42,45 120,61 199,72 58,8 187,16 169,92 -15,63 -144,66 -210,53 -93,-19 -93,-67 -108,-158l-100 0c0,-108 -4,-173 -67,-238 -137,-142 -417,-135 -531,36 -35,53 -30,78 -45,105l-6 -67 -446 1 1 101 337 2z"/>
    <path class="fil0" d="M14732 10323c-49,23 -65,52 -163,61 -416,41 -470,-446 -189,-569 56,-25 126,-32 192,-24 79,8 104,29 160,58l0 -61 112 1 0 586 -112 -1 0 -51zm526 -742l0 207c-144,2 -150,19 -247,62l-2 -50 -110 0 0 574 112 -1c0,-267 -45,-481 247,-485l0 506 -2747 0 0 -5c128,1 250,-29 278,-131 37,-134 -68,-191 -177,-212 -53,-9 -120,-16 -170,-31 -135,-40 -8,-170 164,-115 58,18 65,58 71,128l114 0c4,-66 -21,-126 -51,-163 -46,-58 -120,-59 -137,-74 32,-1 443,0 450,4 -28,15 -66,6 -141,63 -35,27 -68,66 -88,120 -45,121 -17,242 55,314 40,40 73,62 132,79 58,17 131,20 191,10 181,-30 192,-141 225,-189 43,100 108,168 239,189 314,51 478,-205 376,-425 -23,-49 -60,-89 -102,-115 -86,-55 -128,-35 -157,-55 10,-2 258,2 299,2l0 586 112 -1 0 -793 -115 0c8,-12 -4,-2 13,-7l59 -2c53,0 34,9 73,11 108,4 328,-1 443,-1l591 0z"/>
    <path class="fil0" d="M7414 8041l1076 0c-16,-46 -44,-97 -64,-143 -22,-48 -44,-97 -67,-145l-265 -576c-23,-49 -45,-98 -66,-146l-57 -125c-3,-5 -3,-6 -6,-10 -5,-6 -3,-4 -8,-9l-543 1154z"/>
    <path class="fil4" d="M9638 5782c-27,8 -53,17 -78,26 -95,34 -276,138 -366,195 -53,33 -45,20 -59,50l-2 26 186 -113c137,-82 273,-127 427,-174 10,-3 21,-6 33,-10l-141 0z"/>
    <path class="fil1" d="M13696 9891c135,-20 235,38 257,149 57,291 -376,334 -425,95 -14,-63 1,-128 32,-169 32,-42 65,-64 136,-75zm-643 -96c-28,15 -66,6 -141,63 -35,27 -68,66 -88,120 -45,121 -17,242 55,314 40,40 73,62 132,79 58,17 131,20 191,10 181,-30 192,-141 225,-189 43,100 108,168 239,189 314,51 478,-205 376,-425 -23,-49 -60,-89 -102,-115 -86,-55 -128,-35 -157,-55 -40,7 -84,1 -131,11 -86,16 -163,66 -203,141 -7,12 -14,33 -22,42 -14,78 -21,98 -9,183l-95 -35c-24,116 -85,168 -221,158 -114,-8 -188,-73 -187,-193 3,-222 249,-234 338,-175 45,29 52,87 71,116 18,-6 34,-14 51,-22 49,-23 42,-14 48,-32 -7,-10 -14,-34 -21,-48 -9,-18 -14,-28 -26,-44 -20,-27 -41,-46 -78,-65 -80,-40 -149,-39 -245,-28z"/>
    <polygon class="fil1" points="11721,9681 12262,9681 12262,9580 11608,9580 11608,10374 12268,10372 12267,10272 11719,10271 11721,10012 12200,10010 12200,9910 11720,9910 "/>
    <path class="fil1" d="M5871 10374c0,-105 -2,-211 0,-315 1,-98 50,-166 143,-171 131,-7 142,54 142,171 0,105 0,210 0,315l112 -2c0,-105 0,-209 0,-313 0,-57 0,-92 33,-127 26,-27 61,-42 111,-44 134,-6 139,57 139,176 0,103 0,206 0,310l112 -1c0,-91 0,-183 0,-275 0,-92 11,-169 -41,-234 -40,-50 -109,-76 -200,-76 -101,0 -136,23 -201,73 -40,-39 -82,-68 -163,-72 -101,-6 -124,19 -187,44l-2 -33 -110 0 0 574 112 0z"/>
    <path class="fil1" d="M5326 9875c306,-70 354,343 118,402 -306,78 -352,-348 -118,-402zm266 -45c-60,-29 -82,-54 -169,-61 -482,-39 -475,665 5,615 94,-9 108,-35 164,-62l0 53 112 0c0,-87 5,-770 -3,-796l-109 2 0 249z"/>
    <path class="fil1" d="M4708 9748c20,18 142,286 143,290l-284 0c5,-24 55,-116 70,-146 24,-48 50,-97 71,-144zm-221 443c7,-15 21,-51 35,-51l370 0c19,0 56,94 65,114 17,34 47,88 57,120l123 -1 -359 -747c-28,-59 -12,-47 -108,-46 -20,25 -264,524 -300,597 -31,62 -72,134 -98,196l127 0 88 -182z"/>
    <path class="fil1" d="M3518 8938l65 0 0 -2337c-114,-19 -92,18 -92,56 4,714 0,1436 0,2152 0,101 -14,129 27,129z"/>
    <path class="fil1" d="M14320 10118c-13,-128 56,-217 171,-229 133,-13 225,48 239,166 34,281 -384,315 -410,63zm412 205l0 51 112 1 0 -586 -112 -1 0 61c-56,-29 -81,-50 -160,-58 -66,-8 -136,-1 -192,24 -281,123 -227,610 189,569 98,-9 114,-38 163,-61z"/>
    <path class="fil1" d="M9139 9889c303,-31 313,362 69,395 -132,19 -227,-44 -241,-161 -16,-132 54,-222 172,-234zm239 -41c-26,-10 -46,-28 -77,-39 -180,-66 -448,10 -448,279 0,218 173,317 365,296 94,-10 107,-36 160,-59l0 49 112 1 0 -587 -112 2 0 58z"/>
    <path class="fil1" d="M10592 9802c-143,0 -111,-13 -144,49 -45,86 -144,320 -179,368l-213 -417c-105,0 -83,6 -96,-16l-108 -7 0 595 112 0 0 -496 264 496 87 -1 277 -571z"/>
    <path class="fil1" d="M7761 10113c35,7 64,15 102,21 51,7 153,13 184,53 22,28 3,62 -21,78 -36,23 -309,78 -287,-141l-114 0c-5,39 5,84 17,118 70,194 376,166 468,92 61,-49 78,-126 45,-191 -68,-134 -335,-89 -384,-153 -38,-49 33,-109 153,-100 104,7 117,41 129,138l112 0c30,-304 -475,-309 -514,-95 -25,135 86,163 110,180z"/>
    <path class="fil1" d="M12511 10389c128,1 250,-29 278,-131 37,-134 -68,-191 -177,-212 -53,-9 -120,-16 -170,-31 -135,-40 -8,-170 164,-115 58,18 65,58 71,128l114 0c4,-66 -21,-126 -51,-163 -46,-58 -120,-59 -137,-74 -76,6 -116,-16 -198,13 -149,53 -163,190 -93,262 83,85 242,58 330,99 66,31 45,95 -24,114 -54,14 -140,13 -190,-9 -56,-26 -58,-74 -67,-146l-112 2c-9,175 100,251 262,263z"/>
    <path class="fil1" d="M10811 9891c317,-47 345,355 90,393 -136,20 -241,-41 -261,-156 -24,-136 56,-220 171,-237zm370 237c25,-193 -109,-322 -280,-338 -196,-18 -350,80 -373,249 -27,198 103,330 280,346 202,18 350,-81 373,-257z"/>
    <path class="fil1" d="M3191 9891c318,-44 342,354 90,393 -137,20 -241,-40 -262,-155 -25,-136 55,-222 172,-238zm-286 222c24,384 688,368 656,-54 -14,-179 -161,-282 -358,-270 -180,11 -310,132 -298,324z"/>
    <path class="fil1" d="M6983 10373c0,-105 -6,-226 0,-329 6,-97 73,-153 173,-156 145,-5 165,55 165,161 0,108 0,217 0,325l112 0c0,-90 0,-181 0,-271 0,-94 11,-166 -42,-230 -37,-43 -105,-77 -186,-83 -98,-9 -152,10 -221,46l-3 -36 -110 0 0 574 112 -1z"/>
    <path class="fil0" d="M13427 9980l-4 0c-6,18 1,9 -48,32 -17,8 -33,16 -51,22 -19,-29 -26,-87 -71,-116 -89,-59 -335,-47 -338,175 -1,120 73,185 187,193 136,10 197,-42 221,-158l95 35c-12,-85 -5,-105 9,-183z"/>
    <path class="fil0" d="M13696 9891c-71,11 -104,33 -136,75 -31,41 -46,106 -32,169 49,239 482,196 425,-95 -22,-111 -122,-169 -257,-149z"/>
    <path class="fil0" d="M10811 9891c-115,17 -195,101 -171,237 20,115 125,176 261,156 255,-38 227,-440 -90,-393z"/>
    <path class="fil0" d="M3191 9891c-117,16 -197,102 -172,238 21,115 125,175 262,155 252,-39 228,-437 -90,-393z"/>
    <path class="fil0" d="M5326 9875c-234,54 -188,480 118,402 236,-59 188,-472 -118,-402z"/>
    <path class="fil0" d="M9139 9889c-118,12 -188,102 -172,234 14,117 109,180 241,161 244,-33 234,-426 -69,-395z"/>
    <path class="fil0" d="M14320 10118c26,252 444,218 410,-63 -14,-118 -106,-179 -239,-166 -115,12 -184,101 -171,229z"/>
    <polygon class="fil1" points="2588,9916 2704,9917 2704,10374 2816,10374 2816,9916 2934,9916 2933,9814 2816,9811 2817,9655 2704,9655 2704,9814 2588,9814 "/>
    <path class="fil1" d="M8165 9916l116 2 0 456 112 0 0 -458 118 0 -2 -102 -116 -3 0 -157 -108 3c-10,32 -4,116 -4,156l-116 1 0 102z"/>
    <path class="fil1" d="M9501 9915l116 1 0 458 112 -1 0 -457 120 -2c0,-29 6,-76 -4,-100l-116 0 0 -159 -112 0 0 159 -116 1 0 100z"/>
    <path class="fil1" d="M15258 9788c-144,2 -150,19 -247,62l-2 -50 -110 0 0 574 112 -1c0,-267 -45,-481 247,-485l0 -100z"/>
    <path class="fil1" d="M3687 9850l-1 -50 -110 0 -1 572 112 2c0,-154 -32,-383 96,-454 54,-31 89,-25 152,-34l0 -97c-55,-5 -147,10 -199,34 -18,9 -34,21 -49,27z"/>
    <path class="fil1" d="M8629 9851l-2 -51 -110 0 -1 573 112 1c0,-154 -32,-382 96,-455 60,-34 94,-18 152,-34l0 -95c-84,-17 -194,29 -247,61z"/>
    <polygon class="fil1" points="14082,9788 14082,10374 14194,10373 14194,9580 14079,9580 "/>
    <path class="fil1" d="M1760 7502c-193,28 -155,288 86,249 78,-12 138,-68 110,-161 -22,-73 -107,-102 -196,-88z"/>
    <path class="fil1" d="M1760 6911c-81,12 -145,68 -114,167 35,108 238,111 294,34 60,-80 -1,-227 -180,-201z"/>
    <path class="fil1" d="M1760 8383c-190,28 -161,286 87,250 187,-28 142,-284 -87,-250z"/>
    <path class="fil1" d="M1760 7797c-108,14 -139,96 -113,165 53,136 365,119 309,-77 -20,-73 -107,-100 -196,-88z"/>
    <path class="fil1" d="M1770 8678c-80,14 -145,64 -127,160 26,142 359,130 314,-68 -16,-73 -97,-108 -187,-92z"/>
    <path class="fil1" d="M1395 8382c-41,6 -77,17 -99,45 -61,74 -24,224 169,208 201,-18 158,-284 -70,-253z"/>
    <path class="fil1" d="M2499 7502c-81,11 -142,68 -112,163 23,73 106,100 198,87 189,-27 145,-284 -86,-250z"/>
    <path class="fil1" d="M1395 6620c-206,24 -149,271 70,252 189,-16 177,-281 -70,-252z"/>
    <path class="fil1" d="M1022 8092c-44,6 -82,20 -100,45 -44,58 -28,144 54,187 37,20 76,25 124,19 81,-9 141,-66 116,-162 -19,-72 -104,-100 -194,-89z"/>
    <path class="fil1" d="M1760 6620c-199,27 -143,287 86,250 178,-28 159,-282 -86,-250z"/>
    <path class="fil1" d="M1018 7502c-192,30 -148,280 86,250 80,-10 140,-70 110,-164 -22,-71 -104,-100 -196,-86z"/>
    <path class="fil1" d="M652 7502c-103,14 -135,89 -112,164 22,71 107,100 199,86 190,-29 143,-282 -87,-250z"/>
    <path class="fil1" d="M1022 6620c-44,6 -82,20 -100,45 -66,89 11,226 178,207 181,-21 169,-283 -78,-252z"/>
    <path class="fil1" d="M1035 8677c-180,27 -202,274 51,253 83,-7 145,-58 132,-150 -11,-84 -89,-116 -183,-103z"/>
    <path class="fil1" d="M1405 8678c-180,28 -201,271 50,252 85,-6 147,-57 134,-151 -13,-83 -94,-116 -184,-101z"/>
    <path class="fil1" d="M2498 7797c-44,6 -75,19 -96,48 -55,73 -9,230 183,202 186,-27 150,-282 -87,-250z"/>
    <path class="fil1" d="M652 6911c-44,6 -79,21 -96,48 -55,84 -13,229 183,202 195,-27 135,-281 -87,-250z"/>
    <path class="fil1" d="M2499 6911c-84,12 -140,69 -113,164 21,72 110,99 200,86 199,-28 130,-281 -87,-250z"/>
    <path class="fil1" d="M652 8383c-44,6 -79,21 -96,48 -56,85 -12,229 183,202 196,-27 134,-281 -87,-250z"/>
    <path class="fil1" d="M2143 8677c-81,13 -144,62 -130,156 22,154 349,127 316,-56 -14,-80 -97,-114 -186,-100z"/>
    <path class="fil1" d="M2495 8384c-82,12 -138,72 -107,167 22,70 113,95 202,81 194,-30 126,-281 -95,-248z"/>
    <path class="fil1" d="M1022 7797c-205,26 -141,275 78,251 82,-9 141,-64 116,-162 -20,-73 -103,-101 -194,-89z"/>
    <path class="fil1" d="M2498 8092c-101,14 -136,84 -110,164 21,66 109,99 197,86 186,-27 150,-281 -87,-250z"/>
    <path class="fil1" d="M1018 8384c-190,27 -152,279 87,250 106,-14 133,-97 109,-165 -24,-67 -106,-98 -196,-85z"/>
    <path class="fil1" d="M1395 6911c-196,25 -160,272 70,252 199,-17 161,-282 -70,-252z"/>
    <path class="fil1" d="M2133 7501c-191,25 -162,284 79,251 193,-27 146,-281 -79,-251z"/>
    <path class="fil1" d="M2133 7796c-104,13 -141,86 -117,162 31,99 219,127 291,43 61,-72 16,-227 -174,-205z"/>
    <path class="fil1" d="M652 8092c-82,11 -144,68 -111,164 23,65 107,100 198,86 186,-28 148,-280 -87,-250z"/>
    <path class="fil1" d="M2133 8382c-82,11 -144,65 -118,163 20,72 105,99 197,88 198,-23 138,-279 -79,-251z"/>
    <path class="fil1" d="M2133 6910c-82,11 -144,66 -118,163 20,72 105,100 197,89 198,-24 138,-280 -79,-252z"/>
    <path class="fil1" d="M652 7206c-103,14 -135,89 -112,165 22,70 107,99 199,85 195,-30 133,-280 -87,-250z"/>
    <polygon class="fil1" points="6712,10374 6806,10374 6824,10372 6824,9779 6712,9779 6712,9798 "/>
    <path class="fil1" d="M1018 6912c-193,30 -148,279 87,250 186,-24 145,-286 -87,-250z"/>
    <path class="fil1" d="M2133 6620c-200,24 -149,282 79,251 40,-6 79,-22 95,-46 69,-103 -10,-225 -174,-205z"/>
    <polygon class="fil1" points="7483,10373 7595,10374 7595,9798 7595,9778 7483,9781 "/>
    <path class="fil1" d="M652 7797c-194,25 -143,285 87,250 188,-29 146,-280 -87,-250z"/>
    <path class="fil1" d="M2133 8092c-200,23 -149,282 79,251 189,-26 153,-279 -79,-251z"/>
    <path class="fil1" d="M1018 7207c-190,28 -151,280 86,250 187,-23 147,-284 -86,-250z"/>
    <path class="fil0" d="M1940 10160l107 0 0 -29 -517 0c21,195 260,172 333,123 43,-29 48,-49 77,-94z"/>
    <path class="fil0" d="M1534 10033l402 0c-2,-44 -37,-87 -62,-107 -34,-25 -85,-38 -138,-38 -96,0 -195,54 -202,145z"/>
    <path class="fil0" d="M4708 9748c-21,47 -47,96 -71,144 -15,30 -65,122 -70,146l284 0c-1,-4 -123,-272 -143,-290z"/>
    <path class="fil0" d="M7739 10124c-22,219 251,164 287,141 24,-16 43,-50 21,-78 -31,-40 -133,-46 -184,-53 -38,-6 -67,-14 -102,-21 -5,20 6,4 -22,11z"/>
    <path class="fil1" d="M6712 9626l0 54c0,91 112,57 112,15l0 -79c0,-50 -112,-72 -112,10z"/>
    <path class="fil1" d="M7516 9575c-41,24 -35,50 -33,105 1,38 33,73 76,54 42,-19 37,-51 37,-104 -1,-56 -57,-68 -80,-55z"/>
    <path class="fil1" d="M9964 9690l0 -69c0,-46 -113,-104 -113,34 0,42 3,73 39,82 34,8 74,-19 74,-47z"/>
   </g>
   <g>
    <polygon class="fil5 str0" points="7070,4475 7159,4417 7249,4366 7442,4276 7634,4205 7833,4160 8038,4122 8243,4096 8448,4077 8039,4564 7239,5940 9339,5575 9724,5409 9724,5409 9671,4903 9750,5045 9711,5333 9698,5258 9724,5409 9955,5789 9865,5847 9769,5898 9583,5988 9391,6058 9192,6103 8987,6142 8782,6167 8577,6187 8365,6200 8160,6219 7948,6238 7743,6264 7544,6296 7345,6347 7147,6411 6961,6501 6865,6559 6775,6616 "/>
    <polygon class="fil6 str0" points="7080,4430 7170,4372 7260,4321 7452,4231 7645,4161 7843,4116 8049,4077 8254,4052 8459,4032 8050,4519 7250,5896 9350,5531 9734,5364 9734,5364 9681,4859 9761,5000 9722,5289 9709,5213 9734,5364 9966,5745 9876,5802 9780,5854 9594,5943 9402,6014 9203,6059 8998,6097 8792,6123 8587,6142 8376,6155 8170,6174 7959,6193 7754,6219 7555,6251 7356,6302 7157,6366 6971,6456 6875,6514 6785,6572 "/>
    <polygon class="fil5" points="7477,4041 7560,3990 7650,3951 7740,3913 7829,3887 8009,3842 8189,3823 8375,3816 8560,3816 8753,3829 8939,3842 9125,3855 9317,3868 9503,3868 9689,3861 9869,3836 10048,3797 10138,3765 10228,3733 10317,3688 10401,3643 9952,5798 9862,5849 9779,5888 9689,5926 9599,5952 9420,5997 9234,6016 9054,6029 8862,6022 8676,6016 8490,5997 8304,5984 8112,5977 7926,5971 7740,5977 7560,6003 7381,6048 7291,6074 7201,6112 7111,6150 7028,6202 "/>
    <g>
     <polygon class="fil7" points="7485,4037 7569,3986 7658,3948 7748,3911 7838,3885 8017,3841 8197,3822 8383,3816 8569,3816 8761,3829 8947,3841 9133,3854 9326,3866 9511,3866 9697,3860 9877,3835 10057,3797 10146,3765 10236,3734 10326,3690 10409,3646 9960,5766 9871,5816 9787,5854 9697,5892 9608,5917 9428,5961 9242,5980 9063,5993 8870,5986 8684,5980 8498,5961 8312,5949 8120,5942 7934,5936 7748,5942 7569,5968 7389,6012 7299,6037 7210,6075 7120,6113 7036,6163 "/>
     <path id="1" class="fil8" d="M7569 3987l-83 51 -1 -2 83 -51 0 0 1 2zm-1 -2l0 0 0 0 0 0zm91 -36l-90 38 -1 -2 90 -37 0 0 1 1zm90 -37l-90 37 -1 -1 90 -38 0 0 1 2zm-1 -2l0 0 0 0 0 0zm90 -24l-90 26 0 -2 90 -26 0 0 0 2zm0 -2l0 0 0 0 0 0zm180 -42l-180 44 0 -2 179 -44 0 0 1 2zm-1 -2l0 0 0 0 0 0zm180 -17l-179 19 -1 -2 180 -19 0 0 0 2zm0 -2l0 0 0 0 0 0zm186 -4l-186 6 0 -2 186 -6 0 0 0 2zm0 -2l0 0 0 0 0 0zm186 2l-186 0 0 -2 186 0 0 0 0 2zm0 -2l0 0 0 0 0 0zm192 15l-192 -13 0 -2 192 13 0 0 0 2zm0 -2l0 0 0 0 0 0zm186 14l-186 -12 0 -2 186 12 0 0 0 2zm186 13l-186 -13 0 -2 186 13 0 2zm0 0l0 0 0 0 0 0zm192 12l-192 -12 0 -2 193 12 0 2 -1 0zm1 0l-1 0 0 0 1 0zm185 0l-185 0 0 -2 185 0 1 2 -1 0zm1 0l0 0 -1 0 1 0zm185 -6l-185 6 -1 -2 186 -6 1 2 -1 0zm1 0l0 0 -1 0 1 0zm179 -25l-179 25 -1 -2 180 -25 0 2 0 0zm0 0l0 0 0 0 0 0zm180 -38l-180 38 0 -2 179 -38 1 2 0 0zm0 0l0 0 0 0 0 0zm90 -32l-90 32 -1 -2 90 -31 0 0 1 1zm89 -31l-89 31 -1 -1 90 -32 1 2 -1 0zm1 0l-1 0 0 0 1 0zm89 -44l-89 44 -1 -2 89 -44 1 2 0 0zm0 0l0 0 0 0 0 0zm84 -45l-84 45 -1 -2 84 -44 1 1 0 0zm-1 -1l2 -1 -1 2 -1 -1zm-450 2120l449 -2120 2 1 -449 2120 0 1 -2 -2zm2 1l0 0 0 1 0 -1zm-91 49l90 -50 1 2 -90 50 0 0 -1 -2zm1 2l0 0 0 0 0 0zm-84 36l83 -38 1 2 -83 38 0 0 -1 -2zm1 2l0 0 0 0 0 0zm-91 36l90 -38 1 2 -90 38 0 0 -1 -2zm1 2l0 0 0 0 0 0zm-91 23l90 -25 1 2 -90 25 0 0 -1 -2zm1 2l0 0 0 0 0 0zm-180 42l179 -44 1 2 -180 44 0 0 0 -2zm0 2l0 0 0 0 0 0zm-186 17l186 -19 0 2 -186 19 0 0 0 -2zm0 2l0 0 0 0 0 0zm-179 11l179 -13 0 2 -179 13 0 0 0 -2zm0 2l0 0 0 0 0 0zm-193 -9l193 7 0 2 -193 -6 0 0 0 -3zm0 3l0 0 0 -1 0 1zm-186 -9l186 6 0 3 -186 -7 0 0 0 -2zm0 2l0 0 0 0 0 0zm-186 -21l186 19 0 2 -186 -19 0 -2 0 0zm0 0l0 0 0 0 0 0zm-185 -12l185 12 0 2 -186 -12 0 -2 1 0zm-1 0l1 0 0 0 -1 0zm-192 -7l192 7 0 2 -192 -7 0 0 0 -2zm0 2l0 0 0 0 0 0zm-186 -8l186 6 0 2 -186 -6 0 -2 0 0zm0 0l0 0 0 0 0 0zm-186 6l186 -6 0 2 -186 6 0 -2 0 0zm0 0l0 0 0 0 0 0zm-180 26l180 -26 0 2 -179 26 -1 -2 0 0zm0 0l0 0 0 0 0 0zm-179 44l179 -44 1 2 -180 44 0 -2 0 0zm0 0l0 0 0 0 0 0zm-90 25l90 -25 0 2 -89 25 -1 -2 0 0zm0 0l0 0 0 0 0 0zm-90 38l90 -38 1 2 -90 38 -1 -2zm-90 38l90 -38 1 2 -90 38 -1 -2 0 0zm0 0l0 0 0 0 0 0zm-83 50l83 -50 1 2 -83 50 -2 -1 1 -1zm1 2l-2 1 0 -2 2 1zm449 -2127l-449 2126 -2 0 449 -2126 1 -1 1 1zm-2 0l0 -1 1 0 -1 1z"/>
    </g>
    <polygon class="fil5" points="7809,3652 7892,3601 7983,3563 8073,3524 8163,3499 8343,3454 8524,3434 8711,3428 8897,3428 9091,3441 9278,3454 9464,3467 9658,3479 9845,3479 10031,3473 10212,3447 10392,3409 10482,3377 10573,3345 10663,3300 10746,3255 10295,5409 10205,5461 10122,5499 10031,5538 9941,5563 9761,5608 9574,5627 9394,5640 9200,5634 9013,5627 8827,5608 8640,5595 8447,5589 8260,5583 8073,5589 7892,5615 7712,5659 7622,5685 7532,5724 7441,5762 7358,5813 "/>
    <polygon class="fil9" points="7811,3649 7895,3599 7984,3561 8074,3523 8164,3498 8343,3454 8523,3435 8709,3429 8895,3429 9087,3441 9273,3454 9459,3466 9652,3479 9837,3479 10023,3473 10203,3447 10382,3410 10472,3378 10562,3347 10652,3302 10735,3258 10286,5377 10197,5427 10113,5465 10023,5503 9934,5528 9754,5573 9568,5591 9389,5604 9196,5598 9010,5591 8824,5573 8638,5560 8446,5554 8260,5547 8074,5554 7895,5579 7715,5623 7625,5648 7536,5686 7446,5724 7362,5774 "/>
    <polygon class="fil1" style="mask:url(#id0)" points="7821,3626 7905,3575 7995,3538 8085,3501 8175,3476 8355,3433 8535,3416 8721,3411 8906,3413 9099,3428 9284,3443 9470,3458 9662,3473 9848,3475 10034,3470 10214,3447 10394,3410 10484,3379 10574,3348 10664,3304 10748,3260 10276,5408 10185,5459 10102,5496 10011,5534 9921,5558 9742,5601 9555,5618 9376,5629 9184,5621 8998,5612 8812,5591 8626,5576 8434,5568 8248,5559 8063,5564 7883,5587 7703,5630 7613,5655 7523,5692 7433,5730 7349,5780 "/>
   </g>
  </g>
 </g>
</svg>
